<svg xmlns="http://www.w3.org/2000/svg" version="1.0" viewBox="0 0 512.000000 512.000000" preserveAspectRatio="xMidYMid meet">

<g transform="translate(0.000000,512.000000) scale(0.100000,-0.100000)" fill="#fff" stroke="none">
<path d="M2406 5109 c-411 -61 -772 -380 -873 -770 l-17 -66 -112 -11 c-459 -48 -811 -342 -942 -787 l-27 -90 -3 -1200 c-2 -850 0 -1223 8 -1280 45 -319 254 -614 550 -778 89 -49 257 -103 365 -117 63 -8 310 -10 835 -8 l745 3 100 28 c191 51 394 172 514 303 168 184 272 422 288 660 l6 91 81 23 c334 96 614 370 719 705 48 153 48 164 45 1260 l-3 1030 -22 65 c-47 136 -79 176 -408 506 -334 335 -374 367 -520 416 -70 23 -72 23 -670 24 -330 1 -627 -2 -659 -7z m1006 -671 c3 -229 6 -259 25 -311 43 -115 139 -214 250 -258 55 -22 74 -24 321 -27 l263 -3 -3 -907 -3 -907 -24 -70 c-39 -117 -80 -184 -166 -270 -88 -88 -156 -130 -275 -167 l-75 -23 -630 0 c-581 0 -635 1 -695 18 -181 51 -334 178 -414 342 -68 140 -66 102 -66 1237 0 1144 -2 1098 71 1248 78 160 243 293 414 334 48 11 156 15 532 15 l471 1 4 -252z m-1922 -1465 c0 -572 4 -899 11 -958 54 -440 352 -787 784 -913 l90 -26 519 -4 519 -3 -6 -67 c-19 -241 -196 -462 -437 -545 -65 -22 -70 -22 -814 -25 -836 -3 -803 -5 -951 67 -188 93 -312 267 -345 486 -7 47 -10 437 -8 1195 4 1253 -1 1168 73 1309 89 169 238 288 419 332 39 10 88 18 109 18 l37 1 0 -867z"/>
<path d="M3022 3509 c-46 -14 -118 -88 -131 -135 -6 -22 -11 -116 -11 -211 l0 -171 -187 -4 c-170 -3 -192 -5 -228 -25 -77 -41 -115 -105 -115 -193 0 -84 53 -161 132 -194 29 -13 77 -16 218 -16 l180 0 0 -180 c0 -197 7 -229 58 -283 48 -51 97 -70 168 -65 78 5 136 41 174 108 24 43 25 54 28 233 l4 187 170 0 c200 0 237 8 294 65 98 98 77 261 -44 332 -46 27 -50 28 -234 31 l-186 4 -4 186 c-3 184 -4 188 -31 234 -49 84 -160 126 -255 97z"/>
</g>
</svg>